<svg data-v-0dd9719b="" version="1.0" xmlns="http://www.w3.org/2000/svg" xmlns:xlink="http://www.w3.org/1999/xlink" width="100%" height="100%" viewBox="0 0 340.000000 250.000000" preserveAspectRatio="xMidYMid meet" color-interpolation-filters="sRGB" style="margin: auto;"> <rect data-v-0dd9719b="" x="0" y="0" width="100%" height="100%" fill="#ffffff" fill-opacity="1" class="background"></rect> <rect data-v-0dd9719b="" x="0" y="0" width="100%" height="100%" fill="url(#watermark)" fill-opacity="1" class="watermarklayer"></rect> <g data-v-0dd9719b="" fill="#391561" class="icon-text-wrapper icon-svg-group iconsvg" transform="translate(89.37500011920929,69.83918762207031)"><g class="iconsvg-imagesvg" transform="translate(50.625,0)"><g><rect fill="#391561" fill-opacity="0" stroke-width="2" x="0" y="0" width="60" height="59.96162456028142" class="image-rect"></rect> <svg filter="url(#colors5664221605)" x="0" y="0" width="60" height="59.96162456028142" filtersec="colorsf5575626401" class="image-svg-svg primary" style="overflow: visible;"><svg xmlns="http://www.w3.org/2000/svg" viewBox="0 0 233 232.85000610351562"><g><path d="M157.6 42.75L42.8 157.65 0 115 114.9 0zM169 54l64 64-76.35 76.3-64.05-63.95zm-23.5 151.4L118 232.85l-64-64 27.5-27.45z" fill="#000000" fill-rule="evenodd"></path></g></svg></svg> <defs><filter id="colors5664221605"><feColorMatrix type="matrix" values="0 0 0 0 0.6953125  0 0 0 0 0.12890625  0 0 0 0 0.3984375  0 0 0 1 0" class="icon-fecolormatrix"></feColorMatrix></filter> <filter id="colorsf5575626401"><feColorMatrix type="matrix" values="0 0 0 0 0.99609375  0 0 0 0 0.99609375  0 0 0 0 0.99609375  0 0 0 1 0" class="icon-fecolormatrix"></feColorMatrix></filter> <filter id="colorsb636196210"><feColorMatrix type="matrix" values="0 0 0 0 0  0 0 0 0 0  0 0 0 0 0  0 0 0 1 0" class="icon-fecolormatrix"></feColorMatrix></filter></defs></g></g> <g transform="translate(0,66.96162796020508)"><g data-gra="path-name" fill-rule="" class="tp-name iconsvg-namesvg"><g transform="scale(1)"><g><path d="M32.81 0L28.59-12.42 11.25-12.42 6.8 0 0.94 0 17.11-42.89 23.67-42.89 39.14 0 32.81 0ZM19.92-36.56L13.13-17.58 26.48-17.58 20.16-36.56 19.92-36.56ZM43.83-42.89L49.22-42.89 49.22 0 43.83 0 43.83-42.89ZM68.44-31.41L68.44-26.95 63.28-26.95 63.28-6.56Q63.28-3.98 66.33-3.98L66.33-3.98 68.44-3.98 68.44 0Q67.03 0 65.16 0L65.16 0Q64.69 0 64.45 0L64.45 0Q57.66 0 57.89-6.09L57.89-6.09 57.89-26.95 53.91-26.95 53.91-31.41 57.89-31.41 57.89-40.08 63.28-40.08 63.28-31.41 68.44-31.41ZM94.92-9.84L94.92-9.84 100.08-9.84Q99.14-4.45 94.45-1.17L94.45-1.17Q91.88 0.47 86.02 0.47L86.02 0.47Q72.66 0 71.95-14.77L71.95-14.77Q72.42-31.88 86.95-32.34L86.95-32.34Q100.31-32.11 100.55-13.83L100.55-13.83 77.58-13.83Q77.58-3.52 86.72-3.52L86.72-3.52Q93.28-3.98 94.92-9.84ZM77.58-18.05L77.58-18.05 95.16-18.05Q94.45-27.42 86.25-27.42L86.25-27.42Q78.52-26.72 77.58-18.05ZM131.48-20.63L131.48-20.63 126.33-20.63Q125.63-27.42 119.06-27.42L119.06-27.42Q110.63-26.95 110.16-15.7L110.16-15.7Q110.16-3.52 118.83-3.52L118.83-3.52Q125.16-3.98 126.33-11.02L126.33-11.02 131.48-11.02Q129.61 0.23 118.83 0.47L118.83 0.47Q105.23 0 104.77-14.77L104.77-14.77Q105.23-31.88 119.77-32.34L119.77-32.34Q130.08-32.11 131.48-20.63ZM162.19-21.33L162.19-21.33 162.19 0 157.03 0 157.03-20.39Q157.27-27.66 150.7-27.42L150.7-27.42Q142.27-27.19 142.03-17.11L142.03-17.11 142.03 0 136.64 0 136.64-42.89 142.03-42.89 142.03-27.19 142.27-27.19Q146.02-32.34 151.41-32.34L151.41-32.34Q161.95-32.11 162.19-21.33Z" transform="translate(-0.940000057220459, 42.88999938964844)"></path></g> <!----> <!----> <!----> <!----> <!----> <!----> <!----></g></g> <!----></g></g><defs v-gra="od"></defs></svg>